<svg width="53" height="57" viewBox="0 0 53 57" fill="none" xmlns="http://www.w3.org/2000/svg">
<path d="M52.0517 13.1256C52.191 9.05587 48.8418 5.67577 44.7675 6.0233L22.0691 7.95925C18.9222 8.22764 16.3555 10.6874 15.8791 13.8913L14.4092 23.7755C13.2989 22.7833 11.9057 22.0967 10.336 21.8633C5.96319 21.213 1.87701 24.3264 1.20918 28.8173C0.541364 33.3081 3.54477 37.4761 7.91755 38.1263C12.2903 38.7766 16.3766 35.6629 17.0444 31.1721L19.6129 13.8999L48.6163 11.4262L46.8236 23.4811C45.7133 22.4889 44.3202 21.8021 42.7504 21.5687C38.3778 20.9185 34.2914 24.0321 33.6236 28.5229C32.9557 33.0138 35.9593 37.1815 40.332 37.8317C44.7049 38.482 48.7909 35.3686 49.4587 30.8777L51.9763 13.9478C52.0175 13.6713 52.0423 13.3969 52.0517 13.1256Z" fill="url(#paint0_linear_5_322)"/>
<path d="M7.82263 46.0206C9.33193 48.6889 15.0673 54.0253 25.9342 54.0253C36.8011 54.0253 43.2911 48.6889 45.1777 46.0206" stroke="#9C8EF3" stroke-width="5.33644" stroke-linecap="round"/>
<defs>
<linearGradient id="paint0_linear_5_322" x1="-1.24251e-06" y1="44" x2="53" y2="2.5" gradientUnits="userSpaceOnUse">
<stop stop-color="#8A77FF"/>
<stop offset="0.0001" stop-color="#AA9CFF"/>
<stop offset="1" stop-color="#5E4FBC"/>
</linearGradient>
</defs>
</svg>
